<svg width="80" height="16" viewBox="0 0 80 16" fill="none" xmlns="http://www.w3.org/2000/svg">
<path d="M6.7 15.3C6.1933 15.3 5.7567 15.2433 5.39 15.13C5.03 15.0167 4.73 14.9033 4.49 14.79C4.2567 14.6767 4.07 14.62 3.93 14.62C3.79 14.62 3.6633 14.6567 3.55 14.73C3.4433 14.8033 3.34 14.8867 3.24 14.98C3.14 15.0733 3.0333 15.1567 2.92 15.23C2.8133 15.3033 2.6933 15.34 2.56 15.34C2.3933 15.34 2.2533 15.29 2.14 15.19C2.0333 15.09 1.96 14.9267 1.92 14.7L1.29 11.3C1.27 11.14 1.2933 11.0033 1.36 10.89C1.4333 10.77 1.5567 10.68 1.73 10.62C1.9167 10.5533 2.0767 10.5567 2.21 10.63C2.35 10.6967 2.4733 10.83 2.58 11.03C2.9867 11.8233 3.4 12.4433 3.82 12.89C4.24 13.3367 4.6667 13.6533 5.1 13.84C5.5333 14.02 5.9767 14.11 6.43 14.11C7.05 14.11 7.54 13.9567 7.9 13.65C8.2667 13.3367 8.4533 12.91 8.46 12.37C8.46 12.01 8.3733 11.69 8.2 11.41C8.0333 11.13 7.7067 10.86 7.22 10.6C6.7333 10.3333 6.0167 10.0533 5.07 9.76C4.0367 9.44 3.21 9.0667 2.59 8.64C1.97 8.2067 1.52 7.6933 1.24 7.1C0.966702 6.5 0.830002 5.8 0.830002 5C0.830002 4.1667 1.03 3.43 1.43 2.79C1.8367 2.14333 2.4067 1.64 3.14 1.28C3.88 0.919997 4.7467 0.739997 5.74 0.739997C6.3133 0.739997 6.79 0.796667 7.17 0.909997C7.5567 1.01667 7.88 1.12667 8.14 1.24C8.4 1.34667 8.62 1.4 8.8 1.4C8.96 1.4 9.0933 1.34333 9.2 1.23C9.3133 1.11 9.43 0.993327 9.55 0.879997C9.6767 0.759997 9.8433 0.699997 10.05 0.699997C10.2167 0.699997 10.36 0.756667 10.48 0.869997C10.6 0.976667 10.7033 1.18 10.79 1.48L11.71 4.82C11.77 5.0267 11.7633 5.21 11.69 5.37C11.6167 5.5233 11.4933 5.63 11.32 5.69C11.1333 5.7433 10.97 5.7367 10.83 5.67C10.69 5.5967 10.5733 5.47 10.48 5.29C10.0467 4.4433 9.59 3.77667 9.11 3.29C8.63 2.79667 8.14 2.44667 7.64 2.24C7.1467 2.03333 6.6567 1.93 6.17 1.93C5.5633 1.93 5.0867 2.10333 4.74 2.45C4.3933 2.79 4.22 3.23667 4.22 3.79C4.22 4.1367 4.3 4.4567 4.46 4.75C4.62 5.0367 4.9367 5.3233 5.41 5.61C5.89 5.89 6.59 6.1933 7.51 6.52C8.5433 6.8867 9.3667 7.2867 9.98 7.72C10.5933 8.1467 11.0333 8.6367 11.3 9.19C11.5733 9.7367 11.71 10.3767 11.71 11.11C11.71 11.8833 11.51 12.5867 11.11 13.22C10.71 13.8533 10.1367 14.36 9.39 14.74C8.65 15.1133 7.7533 15.3 6.7 15.3ZM13.6391 6.58L13.2291 6.44C13.0824 6.3867 12.9757 6.32 12.9091 6.24C12.8424 6.16 12.8091 6.0667 12.8091 5.96C12.8091 5.8067 12.8624 5.69 12.9691 5.61C13.0757 5.5233 13.2124 5.48 13.3791 5.48H13.9691C14.1091 5.48 14.2324 5.45 14.3391 5.39C14.4457 5.33 14.5657 5.22 14.6991 5.06L16.1191 3.45C16.2857 3.26333 16.4457 3.12333 16.5991 3.03C16.7524 2.93667 16.9024 2.89 17.0491 2.89C17.2091 2.89 17.3357 2.94333 17.4291 3.05C17.5224 3.15667 17.5691 3.30667 17.5691 3.5V11.78C17.5691 12.2667 17.6557 12.6367 17.8291 12.89C18.0091 13.1367 18.2591 13.26 18.5791 13.26C18.8257 13.26 19.0157 13.2067 19.1491 13.1C19.2824 12.9933 19.3891 12.87 19.4691 12.73C19.5557 12.5833 19.6391 12.4533 19.7191 12.34C19.8057 12.2267 19.9191 12.1633 20.0591 12.15C20.1657 12.15 20.2524 12.1867 20.3191 12.26C20.3857 12.3333 20.4191 12.4633 20.4191 12.65C20.4124 13.1233 20.2691 13.5567 19.9891 13.95C19.7091 14.3433 19.3191 14.6567 18.8191 14.89C18.3257 15.1233 17.7624 15.24 17.1291 15.24C16.1624 15.24 15.4091 15.0033 14.8691 14.53C14.3357 14.0567 14.0691 13.34 14.0691 12.38V7.18C14.0691 7 14.0357 6.87 13.9691 6.79C13.9024 6.7033 13.7924 6.6333 13.6391 6.58ZM16.2991 6.63V5.48H19.7691C19.9424 5.48 20.0791 5.5167 20.1791 5.59C20.2791 5.6633 20.3291 5.7667 20.3291 5.9C20.3291 6.1067 20.2291 6.28 20.0291 6.42C19.8291 6.56 19.4991 6.63 19.0391 6.63H16.2991ZM27.4617 13.7V13.48L27.2117 13.46V7.22C27.2117 6.86 27.1184 6.5767 26.9317 6.37C26.7451 6.1633 26.4884 6.06 26.1617 6.06C25.8751 6.06 25.6451 6.1267 25.4717 6.26C25.2984 6.3867 25.2117 6.5467 25.2117 6.74V7.72C25.2117 8.2 25.0484 8.5733 24.7217 8.84C24.4017 9.1 23.9484 9.23 23.3617 9.23C22.8551 9.23 22.4751 9.1167 22.2217 8.89C21.9751 8.6633 21.8517 8.35 21.8517 7.95C21.8517 7.5233 22.0351 7.1033 22.4017 6.69C22.7684 6.27 23.3184 5.9233 24.0517 5.65C24.7851 5.37 25.6984 5.23 26.7917 5.23C28.1051 5.23 29.0817 5.4833 29.7217 5.99C30.3617 6.49 30.6817 7.1767 30.6817 8.05V13.04C30.6817 13.2 30.7151 13.3267 30.7817 13.42C30.8551 13.5067 30.9584 13.55 31.0917 13.55C31.2184 13.55 31.3184 13.5167 31.3917 13.45C31.4651 13.3833 31.5284 13.3133 31.5817 13.24C31.6284 13.2 31.6717 13.1633 31.7117 13.13C31.7517 13.0967 31.8017 13.08 31.8617 13.08C31.9617 13.08 32.0317 13.1167 32.0717 13.19C32.1117 13.2567 32.1317 13.3433 32.1317 13.45C32.1317 13.7033 32.0384 13.97 31.8517 14.25C31.6717 14.53 31.3984 14.77 31.0317 14.97C30.6717 15.1633 30.2217 15.26 29.6817 15.26C29.0151 15.26 28.4784 15.1167 28.0717 14.83C27.6651 14.5433 27.4617 14.1667 27.4617 13.7ZM21.4517 12.89C21.4517 12.0233 21.8384 11.3333 22.6117 10.82C23.3917 10.3 24.4917 10.04 25.9117 10.04C26.3184 10.04 26.6784 10.0733 26.9917 10.14C27.3117 10.2 27.5817 10.2867 27.8017 10.4L27.5317 11.12C27.3451 11.0267 27.1617 10.9567 26.9817 10.91C26.8017 10.8633 26.6051 10.84 26.3917 10.84C25.9584 10.84 25.6151 10.9667 25.3617 11.22C25.1151 11.4733 24.9917 11.8333 24.9917 12.3C24.9917 12.7667 25.1051 13.1233 25.3317 13.37C25.5584 13.6167 25.8517 13.74 26.2117 13.74C26.4851 13.74 26.7451 13.6767 26.9917 13.55C27.2451 13.4233 27.4484 13.2567 27.6017 13.05L27.8217 13.71C27.4817 14.2033 27.0084 14.5867 26.4017 14.86C25.7951 15.1267 25.1451 15.26 24.4517 15.26C23.5584 15.26 22.8351 15.04 22.2817 14.6C21.7284 14.1533 21.4517 13.5833 21.4517 12.89ZM37.0952 9.63C37.0952 8.6433 37.2318 7.8233 37.5052 7.17C37.7785 6.51 38.1352 6.02 38.5752 5.7C39.0152 5.3733 39.4952 5.21 40.0152 5.21C40.6752 5.21 41.1852 5.4067 41.5452 5.8C41.9052 6.1867 42.0852 6.76 42.0852 7.52C42.0852 8.2467 41.9352 8.7867 41.6352 9.14C41.3352 9.4933 40.9485 9.67 40.4752 9.67C40.0018 9.67 39.6418 9.5467 39.3952 9.3C39.1552 9.0467 39.0318 8.6967 39.0252 8.25V7.86C39.0185 7.6667 38.9752 7.5233 38.8952 7.43C38.8152 7.33 38.6852 7.28 38.5052 7.28C38.3252 7.28 38.1552 7.36 37.9952 7.52C37.8352 7.6733 37.7052 7.9133 37.6052 8.24C37.5118 8.5667 37.4652 8.9967 37.4652 9.53L37.0952 9.63ZM37.2552 5.98L37.4652 8.21V13.2C37.4652 13.4067 37.4985 13.5567 37.5652 13.65C37.6385 13.7433 37.7818 13.8067 37.9952 13.84L38.8052 13.99C38.9785 14.0233 39.1052 14.08 39.1852 14.16C39.2652 14.24 39.3052 14.3567 39.3052 14.51C39.3052 14.6633 39.2518 14.7833 39.1452 14.87C39.0385 14.9567 38.8818 15 38.6752 15H33.5752C33.3618 15 33.2052 14.9567 33.1052 14.87C33.0052 14.7833 32.9552 14.6633 32.9552 14.51C32.9552 14.4033 32.9852 14.31 33.0452 14.23C33.1052 14.1433 33.2018 14.0733 33.3352 14.02L33.6552 13.92C33.7618 13.88 33.8385 13.81 33.8852 13.71C33.9385 13.61 33.9652 13.4433 33.9652 13.21V7.92C33.9652 7.74 33.9385 7.61 33.8852 7.53C33.8318 7.45 33.7485 7.3967 33.6352 7.37L33.2552 7.32C33.1285 7.28 33.0352 7.2267 32.9752 7.16C32.9218 7.0867 32.8952 6.9967 32.8952 6.89C32.8952 6.7567 32.9318 6.65 33.0052 6.57C33.0852 6.49 33.2218 6.4167 33.4152 6.35L35.4652 5.6C35.8518 5.4467 36.1318 5.35 36.3052 5.31C36.4785 5.2633 36.6118 5.24 36.7052 5.24C36.8652 5.24 36.9852 5.2967 37.0652 5.41C37.1518 5.5233 37.2152 5.7133 37.2552 5.98ZM43.4438 6.58L43.0338 6.44C42.8871 6.3867 42.7804 6.32 42.7138 6.24C42.6471 6.16 42.6138 6.0667 42.6138 5.96C42.6138 5.8067 42.6671 5.69 42.7738 5.61C42.8804 5.5233 43.0171 5.48 43.1838 5.48H43.7738C43.9138 5.48 44.0371 5.45 44.1438 5.39C44.2504 5.33 44.3704 5.22 44.5038 5.06L45.9238 3.45C46.0904 3.26333 46.2504 3.12333 46.4038 3.03C46.5571 2.93667 46.7071 2.89 46.8538 2.89C47.0138 2.89 47.1404 2.94333 47.2338 3.05C47.3271 3.15667 47.3738 3.30667 47.3738 3.5V11.78C47.3738 12.2667 47.4604 12.6367 47.6338 12.89C47.8138 13.1367 48.0638 13.26 48.3838 13.26C48.6304 13.26 48.8204 13.2067 48.9538 13.1C49.0871 12.9933 49.1938 12.87 49.2738 12.73C49.3604 12.5833 49.4438 12.4533 49.5238 12.34C49.6104 12.2267 49.7238 12.1633 49.8638 12.15C49.9704 12.15 50.0571 12.1867 50.1238 12.26C50.1904 12.3333 50.2238 12.4633 50.2238 12.65C50.2171 13.1233 50.0738 13.5567 49.7938 13.95C49.5138 14.3433 49.1238 14.6567 48.6238 14.89C48.1304 15.1233 47.5671 15.24 46.9338 15.24C45.9671 15.24 45.2138 15.0033 44.6738 14.53C44.1404 14.0567 43.8738 13.34 43.8738 12.38V7.18C43.8738 7 43.8404 6.87 43.7738 6.79C43.7071 6.7033 43.5971 6.6333 43.4438 6.58ZM46.1038 6.63V5.48H49.5738C49.7471 5.48 49.8838 5.5167 49.9838 5.59C50.0838 5.6633 50.1338 5.7667 50.1338 5.9C50.1338 6.1067 50.0338 6.28 49.8338 6.42C49.6338 6.56 49.3038 6.63 48.8438 6.63H46.1038ZM55.7464 5.97V13.21C55.7464 13.4367 55.7697 13.6033 55.8164 13.71C55.8631 13.81 55.9431 13.88 56.0564 13.92L56.3564 14.02C56.4964 14.0733 56.5964 14.14 56.6564 14.22C56.7164 14.3 56.7464 14.3967 56.7464 14.51C56.7464 14.6633 56.6964 14.7833 56.5964 14.87C56.4964 14.9567 56.3364 15 56.1164 15H51.8564C51.6431 15 51.4864 14.9567 51.3864 14.87C51.2864 14.7833 51.2364 14.6633 51.2364 14.51C51.2364 14.4033 51.2664 14.31 51.3264 14.23C51.3864 14.1433 51.4831 14.0733 51.6164 14.02L51.9364 13.92C52.0431 13.88 52.1197 13.81 52.1664 13.71C52.2197 13.61 52.2464 13.4433 52.2464 13.21V7.9C52.2464 7.7133 52.2197 7.58 52.1664 7.5C52.1131 7.42 52.0297 7.3667 51.9164 7.34L51.5364 7.29C51.4097 7.2567 51.3164 7.2067 51.2564 7.14C51.2031 7.0667 51.1764 6.9733 51.1764 6.86C51.1764 6.7333 51.2131 6.6333 51.2864 6.56C51.3597 6.48 51.4964 6.4 51.6964 6.32L53.8064 5.55C54.0997 5.43 54.3331 5.35 54.5064 5.31C54.6797 5.2633 54.8331 5.24 54.9664 5.24C55.2264 5.24 55.4197 5.31 55.5464 5.45C55.6797 5.5833 55.7464 5.7567 55.7464 5.97ZM53.7864 4.04C53.1464 4.04 52.6397 3.88667 52.2664 3.58C51.8931 3.26667 51.7064 2.84667 51.7064 2.32C51.7064 1.80667 51.8931 1.39667 52.2664 1.09C52.6397 0.783327 53.1464 0.629997 53.7864 0.629997C54.4197 0.629997 54.9231 0.783327 55.2964 1.09C55.6764 1.39667 55.8664 1.80667 55.8664 2.32C55.8664 2.84667 55.6764 3.26667 55.2964 3.58C54.9231 3.88667 54.4197 4.04 53.7864 4.04ZM67.2675 8.12C67.2675 8.56 67.1075 8.9333 66.7875 9.24C66.4675 9.54 66.0408 9.69 65.5075 9.69C64.9875 9.69 64.5942 9.55 64.3275 9.27C64.0608 8.9833 63.9275 8.6167 63.9275 8.17V7.82C63.9275 7.38 63.8142 7.03 63.5875 6.77C63.3608 6.5033 63.0575 6.37 62.6775 6.37C62.3508 6.37 62.0542 6.48 61.7875 6.7C61.5208 6.9133 61.3075 7.23 61.1475 7.65C60.9875 8.0633 60.9075 8.5733 60.9075 9.18C60.9075 9.9867 61.0442 10.6667 61.3175 11.22C61.5908 11.7667 61.9642 12.1833 62.4375 12.47C62.9175 12.75 63.4608 12.89 64.0675 12.89C64.5742 12.89 65.0175 12.8033 65.3975 12.63C65.7842 12.4567 66.1208 12.1867 66.4075 11.82C66.5542 11.6733 66.6675 11.5767 66.7475 11.53C66.8342 11.4767 66.9175 11.45 66.9975 11.45C67.1108 11.45 67.1942 11.5067 67.2475 11.62C67.3008 11.7267 67.3275 11.8567 67.3275 12.01C67.3075 12.5967 67.1075 13.1367 66.7275 13.63C66.3475 14.1233 65.8275 14.52 65.1675 14.82C64.5142 15.1133 63.7575 15.26 62.8975 15.26C61.9108 15.26 61.0342 15.0633 60.2675 14.67C59.5008 14.27 58.8942 13.7133 58.4475 13C58.0008 12.28 57.7775 11.44 57.7775 10.48C57.7775 9.4733 57.9975 8.5733 58.4375 7.78C58.8775 6.9867 59.4942 6.36 60.2875 5.9C61.0875 5.44 62.0275 5.21 63.1075 5.21C63.9675 5.21 64.7075 5.3433 65.3275 5.61C65.9475 5.87 66.4242 6.22 66.7575 6.66C67.0975 7.1 67.2675 7.5867 67.2675 8.12ZM74.001 5.21C75.074 5.21 76.014 5.4233 76.821 5.85C77.634 6.2767 78.264 6.87 78.711 7.63C79.164 8.3833 79.391 9.2633 79.391 10.27C79.391 11.21 79.154 12.0567 78.681 12.81C78.214 13.5633 77.567 14.16 76.741 14.6C75.914 15.04 74.957 15.26 73.871 15.26C72.797 15.26 71.857 15.0467 71.051 14.62C70.244 14.1867 69.614 13.5933 69.161 12.84C68.707 12.08 68.481 11.2033 68.481 10.21C68.481 9.25 68.714 8.3967 69.181 7.65C69.654 6.8967 70.304 6.3033 71.131 5.87C71.957 5.43 72.914 5.21 74.001 5.21ZM74.711 14.06C75.064 14 75.344 13.81 75.551 13.49C75.757 13.1633 75.874 12.7067 75.901 12.12C75.934 11.5267 75.864 10.7967 75.691 9.93C75.531 9.0767 75.324 8.38 75.071 7.84C74.817 7.2933 74.527 6.9 74.201 6.66C73.881 6.42 73.534 6.3367 73.161 6.41C72.807 6.4767 72.527 6.6733 72.321 7C72.121 7.32 72.007 7.7733 71.981 8.36C71.954 8.9467 72.021 9.6767 72.181 10.55C72.347 11.39 72.557 12.0833 72.811 12.63C73.064 13.1767 73.351 13.57 73.671 13.81C73.997 14.0433 74.344 14.1267 74.711 14.06Z" fill="#162E3C"/>
</svg>
