<svg width="136" height="40" viewBox="0 0 136 40" fill="none" xmlns="http://www.w3.org/2000/svg">
<g filter="url(#filter0_d_2_93)">
<path d="M40.51 11.26H43.72V24.26H40.51V11.26ZM45 19.37C45 16.15 47 14.22 50 14.22C53 14.22 55 16.15 55 19.37C55 22.59 53.07 24.54 50 24.54C46.93 24.54 45 22.66 45 19.37ZM51.82 19.37C51.82 17.6 51.13 16.56 50.03 16.56C48.93 16.56 48.25 17.56 48.25 19.37C48.25 21.18 48.93 22.17 50.03 22.17C51.13 22.17 51.84 21.18 51.84 19.38L51.82 19.37ZM56.28 24.93H59.38C59.5211 25.2637 59.7676 25.5422 60.0818 25.7227C60.396 25.9033 60.7606 25.9761 61.12 25.93C62.35 25.93 62.99 25.27 62.99 24.29V22.49H63C62.7351 23.0505 62.3067 23.5176 61.7713 23.83C61.2358 24.1424 60.6183 24.2853 60 24.24C57.65 24.24 56.09 22.45 56.09 19.37C56.09 16.29 57.58 14.37 60.09 14.37C60.7241 14.3361 61.3532 14.4996 61.8904 14.8381C62.4277 15.1766 62.8468 15.6734 63.09 16.26H63V14.45H66.18V24.19C66.18 26.54 64.1 28.01 61.04 28.01C58.26 28 56.48 26.73 56.3 24.94L56.28 24.93ZM63 19.37C63 17.8 62.28 16.81 61.14 16.81C60 16.81 59.3 17.81 59.3 19.37C59.3 20.93 59.99 21.85 61.14 21.85C62.29 21.85 63 21 63 19.37ZM67.45 19.37C67.45 16.15 69.45 14.22 72.45 14.22C75.45 14.22 77.45 16.15 77.45 19.37C77.45 22.59 75.51 24.54 72.45 24.54C69.39 24.54 67.47 22.66 67.47 19.37H67.45ZM74.27 19.37C74.27 17.6 73.57 16.56 72.48 16.56C71.39 16.56 70.7 17.56 70.7 19.37C70.7 21.18 71.38 22.17 72.48 22.17C73.58 22.17 74.29 21.18 74.29 19.38L74.27 19.37ZM78.75 12.08C78.736 11.753 78.8202 11.4293 78.9917 11.1506C79.1632 10.8718 79.4142 10.6508 79.7124 10.5159C80.0106 10.3809 80.3423 10.3383 80.6649 10.3935C80.9875 10.4486 81.2862 10.599 81.5226 10.8253C81.759 11.0517 81.9223 11.3435 81.9915 11.6634C82.0606 11.9833 82.0325 12.3166 81.9107 12.6203C81.7889 12.9241 81.579 13.1845 81.308 13.368C81.037 13.5515 80.7173 13.6497 80.39 13.65C80.1809 13.6553 79.9727 13.619 79.7777 13.5433C79.5827 13.4675 79.4046 13.3537 79.2539 13.2086C79.1032 13.0635 78.9828 12.8899 78.8998 12.6978C78.8167 12.5058 78.7726 12.2992 78.77 12.09L78.75 12.08ZM78.75 14.44H82V24.3H78.8L78.75 14.44ZM93.69 19.37C93.69 22.58 92.25 24.44 89.8 24.44C89.1728 24.4787 88.5488 24.3239 88.0123 23.9967C87.4758 23.6694 87.0527 23.1854 86.8 22.61H86.74V27.47H83.53V14.47H86.72V16.23H86.78C87.024 15.6433 87.443 15.146 87.9798 14.806C88.5167 14.466 89.1453 14.2998 89.78 14.33C92.3 14.31 93.75 16.16 93.75 19.38L93.69 19.37ZM90.42 19.37C90.42 17.81 89.69 16.8 88.56 16.8C87.43 16.8 86.72 17.8 86.71 19.37C86.7 20.94 87.43 21.93 88.56 21.93C89.69 21.93 90.48 21 90.48 19.38L90.42 19.37ZM99.17 14.21C101.86 14.21 103.53 15.48 103.55 17.52H100.62C100.62 16.81 100.03 16.37 99.15 16.37C98.27 16.37 97.85 16.71 97.85 17.22C97.85 17.73 98.22 17.89 98.96 18.04L101.02 18.46C103.02 18.88 103.82 19.68 103.82 21.17C103.82 23.17 101.97 24.53 99.22 24.53C96.47 24.53 94.68 23.21 94.55 21.2H97.66C97.75 21.93 98.33 22.36 99.27 22.36C100.21 22.36 100.65 22.06 100.65 21.53C100.65 21 100.35 20.91 99.58 20.75L97.72 20.36C95.79 19.95 94.78 18.94 94.78 17.43C94.84 15.47 96.52 14.22 99.23 14.22L99.17 14.21ZM114.57 24.29H111.46V22.44H111.4C111.226 23.0571 110.847 23.5964 110.325 23.969C109.803 24.3417 109.17 24.5254 108.53 24.49C108.047 24.5057 107.565 24.4191 107.118 24.2357C106.671 24.0524 106.267 23.7765 105.934 23.4262C105.6 23.0758 105.345 22.6589 105.184 22.2029C105.023 21.7469 104.96 21.2619 105 20.78V14.45H108.21V20.09C108.21 21.25 108.82 21.88 109.82 21.88C110.055 21.8782 110.286 21.8261 110.499 21.7273C110.712 21.6284 110.901 21.485 111.053 21.3068C111.206 21.1286 111.319 20.9197 111.384 20.6943C111.448 20.4688 111.464 20.2321 111.43 20V14.45H114.63L114.57 24.29ZM116.12 14.44H119.24V16.34H119.31C119.482 15.7313 119.852 15.197 120.36 14.8206C120.869 14.4443 121.488 14.2471 122.12 14.26C122.755 14.2048 123.388 14.3884 123.894 14.7749C124.401 15.1614 124.745 15.7231 124.86 16.35H125C125.2 15.7197 125.602 15.1731 126.145 14.7952C126.687 14.4172 127.34 14.2291 128 14.26C128.439 14.2433 128.877 14.3195 129.284 14.4836C129.692 14.6476 130.06 14.8959 130.365 15.2122C130.67 15.5284 130.904 15.9055 131.053 16.3187C131.203 16.7319 131.263 17.1719 131.23 17.61V24.3H128V18.43C128 17.43 127.53 16.87 126.62 16.87C126.418 16.8667 126.218 16.9071 126.033 16.9883C125.848 17.0696 125.684 17.1899 125.55 17.3409C125.416 17.492 125.316 17.6701 125.257 17.8633C125.199 18.0565 125.183 18.26 125.21 18.46V24.3H122.15V18.4C122.15 17.4 121.66 16.87 120.78 16.87C120.576 16.8684 120.374 16.9104 120.188 16.9932C120.001 17.0761 119.835 17.1978 119.699 17.3503C119.564 17.5028 119.463 17.6825 119.403 17.8773C119.342 18.0722 119.324 18.2777 119.35 18.48V24.3H116.14L116.12 14.44Z" fill="white"/>
<path d="M34.16 12.11C34.1601 10.1197 33.5591 8.17573 32.4357 6.53279C31.3123 4.88985 29.7188 3.6245 27.8641 2.9025C26.0094 2.18049 23.9798 2.03549 22.0413 2.48648C20.1027 2.93747 18.3456 3.96343 17 5.42997H4.52002V31.77H30.87V19.46C31.9042 18.535 32.7318 17.4023 33.2987 16.1358C33.8656 14.8693 34.1591 13.4976 34.16 12.11ZM29.09 12.11C29.092 13.0637 28.811 13.9966 28.2826 14.7906C27.7541 15.5845 27.0021 16.2039 26.1215 16.5702C25.2409 16.9366 24.2715 17.0335 23.3358 16.8486C22.4002 16.6638 21.5404 16.2055 20.8653 15.5318C20.1902 14.8581 19.7302 13.9993 19.5434 13.064C19.3566 12.1288 19.4515 11.1591 19.816 10.2778C20.1805 9.39643 20.7983 8.64306 21.5911 8.11299C22.384 7.58292 23.3163 7.29998 24.27 7.29997C25.5466 7.29997 26.7711 7.80642 27.6747 8.70818C28.5784 9.60994 29.0874 10.8334 29.09 12.11ZM25.8 26.7H9.59002V10.5H14.53C14.4346 11.0315 14.3844 11.5701 14.38 12.11C14.3827 14.7322 15.4255 17.2462 17.2797 19.1004C19.1338 20.9545 21.6478 21.9974 24.27 22C24.7827 21.9973 25.2943 21.9538 25.8 21.87V26.7Z" fill="white"/>
</g>
<defs>
<filter id="filter0_d_2_93" x="-2" y="0" width="140" height="43" filterUnits="userSpaceOnUse" color-interpolation-filters="sRGB">
<feFlood flood-opacity="0" result="BackgroundImageFix"/>
<feColorMatrix in="SourceAlpha" type="matrix" values="0 0 0 0 0 0 0 0 0 0 0 0 0 0 0 0 0 0 127 0" result="hardAlpha"/>
<feOffset dy="4"/>
<feGaussianBlur stdDeviation="2"/>
<feComposite in2="hardAlpha" operator="out"/>
<feColorMatrix type="matrix" values="0 0 0 0 0 0 0 0 0 0 0 0 0 0 0 0 0 0 0.25 0"/>
<feBlend mode="normal" in2="BackgroundImageFix" result="effect1_dropShadow_2_93"/>
<feBlend mode="normal" in="SourceGraphic" in2="effect1_dropShadow_2_93" result="shape"/>
</filter>
</defs>
</svg>
